<svg width="393" height="53" viewBox="0 0 393 53" fill="none" xmlns="http://www.w3.org/2000/svg">
<path fill-rule="evenodd" clip-rule="evenodd" d="M2.90854 0C1.3022 0 0 1.3022 0 2.90854V36.8415C0 38.4478 1.3022 39.75 2.90854 39.75H36.8415C38.4478 39.75 39.75 38.4478 39.75 36.8415V2.90854C39.75 1.3022 38.4478 0 36.8415 0H2.90854ZM19.8759 35.9647C28.7618 35.9647 35.9652 28.7613 35.9652 19.8754C35.9652 10.9896 28.7618 3.78613 19.8759 3.78613C10.99 3.78613 3.78662 10.9896 3.78662 19.8754C3.78662 28.7613 10.99 35.9647 19.8759 35.9647Z" fill="white"/>
<path d="M88.7544 40.3261V35.1413H65.2935V0H59.5713V40.3261H88.7544Z" fill="white"/>
<path d="M98.6079 6.33696V0H92.5996V6.33696H98.6079ZM98.3218 40.3261V11.5217H92.8857V40.3261H98.3218Z" fill="white"/>
<path d="M116.811 53.0001C125.68 53.0001 130.83 47.5273 130.83 40.3262V11.5218H125.394V15.5544C124.249 13.2501 121.102 10.9458 116.811 10.9458C110.058 10.9458 104.107 15.5544 104.107 25.636C104.107 35.7175 110.23 40.3262 116.811 40.3262C121.102 40.3262 123.963 38.0218 125.394 35.7175V39.7501C125.394 45.799 121.961 48.3914 117.097 48.3914H116.524C112.633 48.3914 109.543 46.9512 108.971 44.0708H103.535C104.107 49.2555 108.8 53.0001 116.811 53.0001ZM117.039 35.7175C112.977 35.7175 109.543 32.8371 109.543 25.636C109.543 18.4349 113.263 15.5544 117.326 15.5544H117.783C121.732 15.5544 125.394 19.299 125.394 25.636C125.394 31.9729 121.446 35.7175 117.497 35.7175H117.039Z" fill="white"/>
<path d="M141.982 40.3261V24.1957C141.982 18.7228 145.701 15.5543 149.764 15.5543H150.222C154.285 15.5543 156.001 18.1467 156.001 22.1793V40.3261H161.438V21.0272C161.438 14.9783 157.718 10.9457 151.137 10.9457C146.56 10.9457 143.699 12.962 141.982 15.5543V0H136.546V40.3261H141.982Z" fill="white"/>
<path d="M184.508 40.3259V35.4291H179.072C177.355 35.4291 176.783 34.8531 176.783 33.1248V16.2455H183.65V11.5215H176.783V2.18896H171.347V11.5215H165.053V16.2455H171.347V33.9889C171.347 38.0215 173.636 40.3259 177.641 40.3259H184.508Z" fill="white"/>
<path d="M209.795 40.3261V23.3315H229.25V18.1467H209.795V5.18478H232.111V0H204.073V40.3261H209.795Z" fill="white"/>
<path d="M243.211 40.9023C247.789 40.9023 251.222 38.3099 252.367 35.7175C252.367 36.0055 252.367 38.886 252.653 40.3262H257.803C257.517 38.3099 257.517 35.7175 257.517 33.9892V21.8914C257.517 16.0153 253.511 10.9458 245.901 10.9458C239.435 10.9458 234.685 14.5751 234.342 19.8751H239.778C240.121 16.9947 242.696 15.5544 245.672 15.5544H246.13C249.792 15.5544 252.081 17.8588 252.081 21.8914V22.8131L244.184 23.4468C239.549 23.8501 233.77 25.8088 233.77 32.3762C233.77 37.2729 237.775 40.9023 243.211 40.9023ZM243.841 36.2936C241.151 36.2936 239.206 34.5077 239.206 32.1458C239.206 29.4958 241.609 27.8827 244.928 27.5947L252.081 27.0186V29.9566C252.081 33.4131 247.789 36.2936 244.299 36.2936H243.841Z" fill="white"/>
<path d="M276.702 40.9023C283.225 40.9023 287.86 37.0425 288.432 30.8208H282.996C282.481 33.9892 280.192 36.2936 276.931 36.2936H276.473C270.98 36.2936 268.405 31.3968 268.405 25.924C268.405 20.4512 270.98 15.5544 276.473 15.5544H276.931C280.192 15.5544 282.481 17.8588 282.996 21.0273H288.432C287.86 14.8055 283.225 10.9458 276.702 10.9458C267.89 10.9458 262.969 17.4555 262.969 25.924C262.969 34.3925 267.89 40.9023 276.702 40.9023Z" fill="white"/>
<path d="M309.909 40.3259V35.4291H304.473C302.756 35.4291 302.184 34.8531 302.184 33.1248V16.2455H309.05V11.5215H302.184V2.18896H296.748V11.5215H290.453V16.2455H296.748V33.9889C296.748 38.0215 299.037 40.3259 303.042 40.3259H309.909Z" fill="white"/>
<path d="M326.604 40.9023C334.329 40.9023 340.337 34.8534 340.337 25.924C340.337 16.9947 334.329 10.9458 326.604 10.9458C318.879 10.9458 312.871 16.9947 312.871 25.924C312.871 34.8534 318.879 40.9023 326.604 40.9023ZM326.375 36.2936C321.74 36.2936 318.307 32.549 318.307 25.924C318.307 19.299 321.74 15.5544 326.375 15.5544H326.833C331.468 15.5544 334.901 19.299 334.901 25.924C334.901 32.549 331.468 36.2936 326.833 36.2936H326.375Z" fill="white"/>
<path d="M350.315 40.3263V25.7513C350.315 19.9904 353.462 16.5339 358.612 16.5339H360.901V11.2339H358.326C354.606 11.2339 351.173 13.5382 350.028 17.8589V11.5219H344.878V40.3263H350.315Z" fill="white"/>
<path d="M387.107 11.5215L378.524 32.7791L369.597 11.5215H363.818L375.834 39.7498V43.7824C375.834 45.5107 375.262 46.0868 373.545 46.0868H365.534V50.9835H374.976C378.981 50.9835 380.984 48.9672 380.984 44.9346V39.6922L392.715 11.5215H387.107Z" fill="white"/>
</svg>
